<svg xmlns="http://www.w3.org/2000/svg" width="40" height="40" viewBox="0 0 40 40">
  <g fill="#eaff00" stroke="#0c0c0c" stroke-width="1.6" stroke-linejoin="round" stroke-linecap="round">
    <!-- pointing index hand -->
    <path d="M14,3 c-1.4,0 -2.5,1.1 -2.5,2.5 v11.5 l-2,-2 c-0.9,-0.9 -2.3,-0.9 -3.2,0
             c-0.7,0.7 -0.8,1.7 -0.25,2.5 l5,7.5 c0.75,1.15 2.05,1.8 3.45,1.8 h6
             c2.3,0 4.2,-1.9 4.2,-4.2 v-7.5 c0,-1.25 -1,-2.25 -2.25,-2.25
             c-0.35,0 -0.7,0.08 -1,0.25 c-0.25,-1 -1.15,-1.75 -2.25,-1.75
             c-0.42,0 -0.82,0.1 -1.15,0.32 c-0.32,-0.85 -1.15,-1.5 -2.15,-1.5
             c-0.25,0 -0.5,0.04 -0.75,0.12 V5.5 c0,-1.4 -1.1,-2.5 -2.5,-2.5 Z"/>
    <!-- cuff -->
    <rect x="11" y="33" width="13" height="4.5" rx="1.6" fill="#0c0c0c" stroke="none"/>
  </g>
  <!-- tiny biohazard mark on the back of the hand -->
  <g fill="none" stroke="#0c0c0c" stroke-width="1.1">
    <circle cx="18.5" cy="27" r="1.5"/>
    <circle cx="15.8" cy="30" r="1.5"/>
    <circle cx="21.2" cy="30" r="1.5"/>
  </g>
</svg>
